# xmcd
#
# Track frame offsets:
#	150
#	18495
#	34210
#	56617
#	71455
#	86317
#	102817
#	116257
#	129082
#	142060
#	159985
#	175807
#	191325
#	209850
#	224557
#	242237
#	257707
#	271657
#
# Disc length: 3827
#
# Revision: 3
# Processed by: cddbd v1.5.1PL0 Copyright (c) Steve Scherf et al.
# Submitted via: audiograbber 1.83.01
# Normalized: r2:DSETVAR1
#
DISCID=fd0ef112
DTITLE=Various Artist - Friends and Lovers
DYEAR=1996
DGENRE=Country
TTITLE0=Colin Raye - One Boy, One Girl
TTITLE1=Joe Diffie - So Help Me Girl
TTITLE2=Patty Loveless - How Can I Help You Say Goodbye
TTITLE3=John and Audrey Wiggins - Has Anybody Seen Amy
TTITLE4=Wade Hayes - I'm Still Dancin' With You
TTITLE5=Ty Herndon - What Mattered Most
TTITLE6=Don Neilson - World To Me
TTITLE7=One Horse Blue - Hopeless Love
TTITLE8=Mary Chapin Carpenter - Tender When I Want To Be
TTITLE9=Suzy Boguss and Chet Atkins - Sorry Seems To Be The Hardest Word
TTITLE10=Doug Stone - I Never Knew Love
TTITLE11=James House - This Is Me Missing You
TTITLE12=Curtis Blayne - Georgia Rain
TTITLE13=Rick Trevino - She Can't Say I Didn't Cry
TTITLE14=Rodney Crowell - What Kind Of Love
TTITLE15=Terry Kelly - In My Father's House
TTITLE16=Jim Witter - Stolen Moments
TTITLE17=Ricky Van Shelton and Dolly Parton - Rockin' Years
EXTD=
EXTT0=
EXTT1=
EXTT2=
EXTT3=
EXTT4=
EXTT5=
EXTT6=
EXTT7=
EXTT8=
EXTT9=
EXTT10=
EXTT11=
EXTT12=
EXTT13=
EXTT14=
EXTT15=
EXTT16=
EXTT17=
PLAYORDER=
